<svg width="70" height="35" viewBox="0 0 70 35" fill="none" xmlns="http://www.w3.org/2000/svg">
<rect x="35" width="35" height="35" rx="17.5" fill="#F6F8F9"/>
<path d="M58.7574 12.3654C57.1262 10.8131 54.4711 10.8131 52.8393 12.3651L52.5 12.6873L52.1611 12.3652C50.5292 10.8131 47.8744 10.8133 46.2425 12.3652C45.4412 13.1273 45 14.1382 45 15.2114C45 16.2849 45.4412 17.2956 46.2426 18.058L52.1377 23.6547C52.2391 23.7512 52.3697 23.7993 52.5 23.7993C52.6303 23.7993 52.7607 23.751 52.8623 23.6545L58.7574 18.058C59.5586 17.2958 60 16.2849 60 15.2115C60 14.1382 59.5586 13.1275 58.7574 12.3654ZM58.0321 17.2949L52.5 22.5472L46.9681 17.2951C46.3777 16.7337 46.0526 15.9937 46.0526 15.2115C46.0526 14.4294 46.3777 13.6894 46.9681 13.128C47.5839 12.5421 48.3926 12.2493 49.2016 12.2493C50.0107 12.2493 50.8198 12.5424 51.4356 13.1284L52.1374 13.7949C52.3405 13.9881 52.6593 13.9881 52.8625 13.7949L53.5644 13.128C54.7961 11.9563 56.8002 11.9563 58.0319 13.128C58.6221 13.6895 58.9474 14.4294 58.9474 15.2115C58.9474 15.9937 58.6221 16.7335 58.0321 17.2949Z" fill="#696969"/>
<g clip-path="url(#clip0_1987_17095)">
<path d="M14.4141 10H10.0844C9.76077 10 9.49845 10.2623 9.49845 10.5859C9.49845 10.9096 9.76077 11.1719 10.0844 11.1719H12.9995L8.30261 15.8688C8.07377 16.0976 8.07377 16.4686 8.30261 16.6974C8.53142 16.9262 8.9024 16.9263 9.13124 16.6974L13.8282 12.0005V14.9156C13.8282 15.2392 14.0905 15.5016 14.4141 15.5016C14.7377 15.5016 15.0001 15.2392 15.0001 14.9156V10.5859C15.0001 10.267 14.7409 10 14.4141 10Z" fill="#696969"/>
<path d="M6.69744 18.3025C6.4686 18.0737 6.09762 18.0736 5.86881 18.3025L1.17188 22.9994V20.0843C1.17188 19.7607 0.909551 19.4983 0.585938 19.4983C0.262324 19.4983 0 19.7607 0 20.0843V24.414C0 24.7323 0.259365 24.9999 0.585938 24.9999H4.91566C5.23928 24.9999 5.5016 24.7376 5.5016 24.414C5.5016 24.0904 5.23928 23.828 4.91566 23.828H2.00051L6.69744 19.1311C6.92628 18.9023 6.92628 18.5313 6.69744 18.3025Z" fill="#696969"/>
</g>
<defs>
<clipPath id="clip0_1987_17095">
<rect width="15" height="15" fill="white" transform="translate(0 10)"/>
</clipPath>
</defs>
</svg>
