<svg width="35" height="35" viewBox="0 0 35 35" fill="none" xmlns="http://www.w3.org/2000/svg">
<rect width="35" height="35" rx="17.5" fill="#F6F8F9"/>
<path d="M23.7574 12.3654C22.1262 10.8131 19.4711 10.8131 17.8393 12.3651L17.5 12.6873L17.1611 12.3652C15.5292 10.8131 12.8744 10.8133 11.2425 12.3652C10.4412 13.1273 10 14.1382 10 15.2114C10 16.2849 10.4412 17.2956 11.2426 18.058L17.1377 23.6547C17.2391 23.7512 17.3697 23.7993 17.5 23.7993C17.6303 23.7993 17.7607 23.751 17.8623 23.6545L23.7574 18.058C24.5586 17.2958 25 16.2849 25 15.2115C25 14.1382 24.5586 13.1275 23.7574 12.3654ZM23.0321 17.2949L17.5 22.5472L11.9681 17.2951C11.3777 16.7337 11.0526 15.9937 11.0526 15.2115C11.0526 14.4294 11.3777 13.6894 11.9681 13.128C12.5839 12.5421 13.3926 12.2493 14.2016 12.2493C15.0107 12.2493 15.8198 12.5424 16.4356 13.1284L17.1374 13.7949C17.3405 13.9881 17.6593 13.9881 17.8625 13.7949L18.5644 13.128C19.7961 11.9563 21.8002 11.9563 23.0319 13.128C23.6221 13.6895 23.9474 14.4294 23.9474 15.2115C23.9474 15.9937 23.6221 16.7335 23.0321 17.2949Z" fill="#696969"/>
</svg>
